<svg width="120" height="120" viewBox="0 0 120 120" fill="none" xmlns="http://www.w3.org/2000/svg">
<circle cx="60" cy="60" r="60" fill="white"/>
<rect width="120" height="120" rx="4" fill="white"/>
<path d="M60.648 38.249V19.289C38.188 19.289 20 37.478 20 59.937C20 82.397 38.189 100.587 60.648 100.587V81.627C48.66 81.627 38.96 71.926 38.96 59.937C38.96 47.95 48.66 38.249 60.648 38.249Z" fill="#000426"/>
<path d="M82.416 38.249C81.1711 38.249 79.9384 38.0038 78.7882 37.5274C77.638 37.051 76.593 36.3527 75.7127 35.4724C74.8324 34.5921 74.1341 33.547 73.6577 32.3968C73.1812 31.2467 72.936 30.0139 72.936 28.769C72.936 27.5241 73.1812 26.2913 73.6577 25.1412C74.1341 23.991 74.8324 22.9459 75.7127 22.0656C76.593 21.1853 77.638 20.487 78.7882 20.0106C79.9384 19.5342 81.1711 19.289 82.416 19.289C84.9303 19.289 87.3416 20.2878 89.1194 22.0656C90.8972 23.8435 91.896 26.2547 91.896 28.769C91.896 31.2833 90.8972 33.6945 89.1194 35.4724C87.3416 37.2502 84.9303 38.249 82.416 38.249Z" fill="#00D8D5"/>
<path d="M82.257 100.586C79.7427 100.586 77.3314 99.5872 75.5536 97.8093C73.7758 96.0315 72.777 93.6202 72.777 91.106C72.777 88.5917 73.7758 86.1804 75.5536 84.4026C77.3314 82.6248 79.7427 81.626 82.257 81.626C84.7712 81.626 87.1825 82.6248 88.9604 84.4026C90.7382 86.1804 91.737 88.5917 91.737 91.106C91.737 93.6202 90.7382 96.0315 88.9604 97.8093C87.1825 99.5872 84.7712 100.586 82.257 100.586Z" fill="#EA048C"/>
<path d="M82.337 59.937C82.337 71.926 72.637 81.627 60.648 81.627V38.248C72.636 38.248 82.337 47.948 82.337 59.936" fill="#000426"/>
</svg>
